<?xml version="1.0" encoding="iso-8859-1"?>
<!-- Generator: Adobe Illustrator 18.0.0, SVG Export Plug-In . SVG Version: 6.00 Build 0)  -->
<!DOCTYPE svg PUBLIC "-//W3C//DTD SVG 1.1//EN" "http://www.w3.org/Graphics/SVG/1.1/DTD/svg11.dtd">
<svg version="1.1" id="Capa_1" xmlns="http://www.w3.org/2000/svg" xmlns:xlink="http://www.w3.org/1999/xlink" x="0px" y="0px"
	 viewBox="0 0 434.268 434.268" style="enable-background:new 0 0 434.268 434.268;" xml:space="preserve">
<g>
	<path d="M162.389,176.486c-21.546-5.984-42.798-8.893-64.969-8.893c-15.244,0-31.05,1.445-46.979,4.296
		c-2.528,0.453-4.488,2.464-4.875,5.003c-0.293,1.924-6.917,47.419,15.916,73.994c10.466,12.182,25.26,18.358,43.965,18.358
		c0.002,0,0.086,0,0.088,0c46.796,0,64.079-39.125,70.603-53.962c0.904-1.926,6.86-15.436,1.632-26.76
		C175.861,184.394,171.636,178.951,162.389,176.486z M68.809,188.248c-0.37,5.516-0.48,10.707-0.326,15.43
		c0.108,3.313-2.49,6.085-5.802,6.192c-0.066,0.002-0.133,0.003-0.199,0.003c-3.224,0-5.888-2.559-5.993-5.805
		c-0.166-5.119-0.05-10.713,0.348-16.624c0.222-3.306,3.079-5.814,6.389-5.585C66.53,182.081,69.031,184.942,68.809,188.248z"/>
	<path d="M429.608,150.648c-58.881-13.516-116.073-12.331-185.439,3.838l-1.437,0.335c-8.081,1.89-18.707,4.149-25.599,4.149
		c-7.008,0-17.518-2.26-25.599-4.149l-1.437-0.335C120.73,138.317,63.54,137.133,4.659,150.648c-3.063,0.703-5.063,3.648-4.59,6.753
		l4.208,27.566c0.273,1.788,1.338,3.358,2.899,4.273c1.56,0.914,3.451,1.075,5.143,0.438c2.39-0.897,4.281-0.903,5.622-0.015
		c1.589,1.054,2.685,3.465,2.791,6.143c1.358,34.088,7.998,57.215,20.895,72.783c13.53,16.333,34.279,24.29,63.433,24.323
		c0.042,0,0.083,0,0.126,0c57.981-0.001,80.766-41.6,95.846-69.134c2.096-3.826,4.075-7.439,5.986-10.662
		c0.074-0.125,0.144-0.254,0.209-0.385c3.354-6.729,7.162-9.121,9.637-9.121c0.022,0,0.046,0.001,0.068,0.001
		c0.036,0.001,0.165,0.002,0.201,0.002s0.165-0.001,0.201-0.002c0.023,0,0.046-0.001,0.068-0.001c2.475,0,6.283,2.392,9.637,9.121
		c0.065,0.131,0.135,0.26,0.209,0.385c1.911,3.223,3.891,6.836,5.986,10.662c15.081,27.535,37.857,69.139,95.847,69.134
		c0.039,0,0.087,0,0.126,0c29.152-0.033,49.901-7.99,63.432-24.323c12.896-15.568,19.536-38.695,20.895-72.783
		c0.106-2.678,1.202-5.089,2.791-6.143c1.341-0.889,3.232-0.883,5.622,0.015c1.694,0.637,3.584,0.476,5.143-0.438
		c1.562-0.914,2.626-2.484,2.899-4.273l4.208-27.566C434.672,154.296,432.671,151.351,429.608,150.648z M419.064,177.017
		c-3.403-0.074-6.619,0.821-9.372,2.646c-4.84,3.21-7.886,9.066-8.148,15.665c-1.249,31.321-7.015,52.168-18.146,65.606
		c-11.267,13.601-28.49,19.949-54.203,19.978c-0.039,0-0.076,0-0.115,0c-22.49,0-40.778-6.873-55.903-21.01
		c-13.267-12.4-21.847-28.066-29.417-41.889c-2.107-3.848-4.1-7.485-6.08-10.834c-7.169-14.223-16.739-15.624-20.523-15.566
		c-0.003,0-0.005,0-0.008,0c-3.78-0.053-13.377,1.316-20.561,15.566c-1.98,3.349-3.973,6.986-6.08,10.834
		c-7.57,13.822-16.15,29.488-29.417,41.889c-15.15,14.161-33.493,21.035-56.018,21.01c-25.714-0.029-42.938-6.378-54.204-19.978
		c-11.131-13.438-16.896-34.284-18.146-65.606c-0.263-6.599-3.309-12.455-8.148-15.665c-2.753-1.826-5.961-2.723-9.372-2.646
		l-2.424-15.879c55.116-11.79,109.244-10.198,174.595,5.034l1.429,0.334c8.655,2.023,21.409,4.409,28.327,4.409
		c7.301,0,19.68-2.386,28.335-4.409l1.429-0.334c65.351-15.232,119.477-16.824,174.595-5.034L419.064,177.017z"/>
	<path d="M271.938,176.47c-9.307,2.482-13.532,7.924-15.44,12.053c-5.228,11.323,0.728,24.834,1.632,26.76
		c6.523,14.837,23.807,53.962,70.603,53.962h0.082c18.711,0,33.505-6.177,43.971-18.358c22.833-26.575,16.209-72.07,15.916-73.994
		c-0.387-2.539-2.347-4.55-4.875-5.003c-15.93-2.851-31.735-4.296-46.979-4.296C314.677,167.593,293.425,170.501,271.938,176.47z
		 M328.733,263.242L328.733,263.242v0.002V263.242z"/>
</g>
<g>
</g>
<g>
</g>
<g>
</g>
<g>
</g>
<g>
</g>
<g>
</g>
<g>
</g>
<g>
</g>
<g>
</g>
<g>
</g>
<g>
</g>
<g>
</g>
<g>
</g>
<g>
</g>
<g>
</g>
</svg>
