<?xml version="1.0" encoding="iso-8859-1"?>
<!-- Generator: Adobe Illustrator 19.0.0, SVG Export Plug-In . SVG Version: 6.00 Build 0)  -->
<svg version="1.1" id="Layer_1" xmlns="http://www.w3.org/2000/svg" xmlns:xlink="http://www.w3.org/1999/xlink" x="0px" y="0px"
	 viewBox="0 0 473.654 473.654" style="enable-background:new 0 0 473.654 473.654;" xml:space="preserve">
<circle style="fill:#A2D4DE;" cx="236.827" cy="236.827" r="236.827"/>
<path style="fill:#FFFFFF;" d="M327.445,185.195c0-43.622-35.365-78.987-78.991-78.987c-28.193,0-52.915,14.783-66.897,37.003
	c-8.766-4.439-18.668-6.956-29.165-6.956c-32.239,0-58.951,23.593-63.842,54.448c-4.405-1.481-9.11-2.319-14.008-2.319
	c-24.262,0-43.94,19.67-43.94,43.94c0,23.249,18.077,42.231,40.937,43.783c2.584,0.841,5.34,1.294,8.193,1.294h219.524
	c15.059,0,27.273-12.591,27.273-28.114V197.24C327.13,193.31,327.445,189.293,327.445,185.195z"/>
<path style="fill:#A2D4DE;" d="M403.193,252.638c-4.229,0-8.283,0.722-12.079,2.008c-4.222-26.622-27.265-46.973-55.073-46.973
	c-9.05,0-17.595,2.169-25.156,6.002c-12.053-19.169-33.387-31.914-57.702-31.914c-31.244,0-57.518,21.061-65.551,49.74
	c-22.972,4.375-40.346,24.535-40.346,48.775c0,27.441,22.247,49.695,49.688,49.695c3.051,0,6.032-0.314,8.941-0.841
	c1.133,0.168,2.27,0.284,3.448,0.284h189.353c2.461,0,4.835-0.393,7.072-1.126c19.711-1.328,35.305-17.703,35.305-37.762
	C441.094,269.605,424.124,252.638,403.193,252.638z"/>
<path style="fill:#FFFFFF;" d="M401.339,261.404c-4.106,0-8.04,0.703-11.724,1.945c-4.099-25.829-26.454-45.578-53.435-45.578
	c-8.781,0-17.067,2.109-24.408,5.826c-11.694-18.597-32.392-30.964-55.985-30.964c-30.317,0-55.809,20.437-63.61,48.263
	c-22.292,4.244-39.15,23.81-39.15,47.328c0,26.622,21.589,48.222,48.214,48.222c2.965,0,5.856-0.307,8.676-0.819
	c1.096,0.161,2.206,0.269,3.347,0.269h183.729c2.39,0,4.697-0.374,6.858-1.081c19.128-1.294,34.262-17.18,34.262-36.644
	C438.113,277.865,421.648,261.404,401.339,261.404z"/>
<g>
</g>
<g>
</g>
<g>
</g>
<g>
</g>
<g>
</g>
<g>
</g>
<g>
</g>
<g>
</g>
<g>
</g>
<g>
</g>
<g>
</g>
<g>
</g>
<g>
</g>
<g>
</g>
<g>
</g>
</svg>
