<?xml version="1.0" encoding="iso-8859-1"?>
<!-- Generator: Adobe Illustrator 18.0.0, SVG Export Plug-In . SVG Version: 6.00 Build 0)  -->
<!DOCTYPE svg PUBLIC "-//W3C//DTD SVG 1.1//EN" "http://www.w3.org/Graphics/SVG/1.1/DTD/svg11.dtd">
<svg version="1.1" id="Capa_1" xmlns="http://www.w3.org/2000/svg" xmlns:xlink="http://www.w3.org/1999/xlink" x="0px" y="0px"
	 viewBox="0 0 477 477" style="enable-background:new 0 0 477 477;" xml:space="preserve">
<g>
	<path d="M154.752,226.088c1.498,3.615,0.739,7.426-2.028,10.193c-6.223,6.223-7.997,15.14-4.628,23.271
		c3.368,8.131,10.927,13.182,19.728,13.182h275.354c3.313,0,6-2.686,6-6s-2.687-6-6-6H167.824c-3.913,0-7.144-2.158-8.641-5.774
		c-1.498-3.615-0.74-7.426,2.027-10.193c6.223-6.223,7.997-15.14,4.629-23.271c-3.368-8.131-10.927-13.182-19.728-13.182h-18.995
		l20.176-20.934l1.777,11.631c0.253,1.658,1.188,3.134,2.58,4.07c1.392,0.937,3.113,1.249,4.741,0.86l39.621-9.434l27.903,16.742
		c0.948,0.569,2.017,0.855,3.087,0.855c0.963,0,1.928-0.232,2.807-0.697l31.271-16.555l21.238,10.619
		c1.494,0.747,3.232,0.837,4.795,0.25c1.563-0.588,2.811-1.801,3.442-3.347l4.705-11.516l37.654,44.717H210.95c-3.313,0-6,2.686-6,6
		s2.687,6,6,6h183.99c9.958,0,18.06-8.102,18.06-18.06c0-4.827-1.878-9.363-5.297-12.782c-3.419-3.403-7.952-5.278-12.708-5.277
		l-67.221-0.615l-14.092-16.735H447.37c3.313,0,6-2.686,6-6s-2.687-6-6-6H303.576L229.59,94.24c-1.095-1.3-2.69-2.075-4.389-2.132
		c-1.703-0.058-3.342,0.609-4.521,1.833L110.45,208.314H6c-3.313,0-6,2.686-6,6s2.687,6,6,6h140.111
		C150.024,220.314,153.255,222.473,154.752,226.088z M394.94,223.455c1.616,0,3.142,0.633,4.288,1.773
		c1.143,1.143,1.772,2.666,1.772,4.287c0,3.341-2.719,6.06-6.06,6.06h-46.339l-10.644-12.641L394.94,223.455z M224.699,107.063
		l61.832,73.43l-4.638,11.351l-18.21-9.105c-1.733-0.866-3.778-0.843-5.49,0.064l-31.009,16.416l-27.097-16.259
		c-1.345-0.807-2.951-1.054-4.477-0.692l-35.663,8.491l-2.178-14.25L224.699,107.063z"/>
	<path d="M66.255,251.633l-26.816,26.226H23c-3.313,0-6,2.686-6,6s2.687,6,6,6h65.167c13.848,0,25.113-11.266,25.113-25.113
		c0-13.847-11.266-25.113-25.113-25.113H17.532c-3.313,0-6,2.686-6,6s2.687,6,6,6H66.255z M101.28,264.746
		c0,7.23-5.883,13.113-13.113,13.113H56.602l26.816-26.226h4.749C95.397,251.633,101.28,257.516,101.28,264.746z"/>
	<path d="M131,330.33H41c-3.313,0-6,2.686-6,6s2.687,6,6,6h90c10.814,0,19.613-8.798,19.613-19.613
		c0-10.815-8.798-19.613-19.613-19.613H24.364c-3.313,0-6,2.686-6,6s2.687,6,6,6H131c4.198,0,7.613,3.415,7.613,7.613
		S135.198,330.33,131,330.33z"/>
	<path d="M194.786,298.239c-9.888,0-17.933,8.045-17.933,17.933s8.045,17.933,17.933,17.933H323c9.888,0,17.933-8.044,17.933-17.933
		s-8.044-17.933-17.933-17.933H194.786z M328.933,316.172c0,3.271-2.661,5.933-5.933,5.933H194.786
		c-3.271,0-5.933-2.661-5.933-5.933c0-3.271,2.662-5.933,5.933-5.933H323C326.271,310.239,328.933,312.901,328.933,316.172z"/>
	<path d="M471,324.935h-78c-6.287,0-11.904,3.753-14.31,9.561s-1.088,12.434,3.357,16.879c1.488,1.488,1.024,3.154,0.756,3.802
		s-1.119,2.153-3.223,2.153H23c-3.313,0-6,2.686-6,6s2.687,6,6,6h356.582c6.287,0,11.903-3.753,14.309-9.561
		c2.406-5.808,1.088-12.434-3.357-16.879c-1.488-1.488-1.024-3.154-0.756-3.802c0.269-0.647,1.119-2.153,3.223-2.153h22.995
		l37.392,45.756c1.186,1.451,2.911,2.204,4.649,2.204c1.335,0,2.679-0.444,3.793-1.354c2.566-2.097,2.946-5.877,0.849-8.443
		l-31.187-38.163H471c3.313,0,6-2.686,6-6S474.313,324.935,471,324.935z"/>
	<path d="M381,300.33c0,8.823,7.177,16,16,16h46c3.313,0,6-2.686,6-6s-2.687-6-6-6h-46c-2.206,0-4-1.794-4-4s1.794-4,4-4h62
		c3.313,0,6-2.686,6-6s-2.687-6-6-6h-62C388.177,284.33,381,291.508,381,300.33z"/>
</g>
<g>
</g>
<g>
</g>
<g>
</g>
<g>
</g>
<g>
</g>
<g>
</g>
<g>
</g>
<g>
</g>
<g>
</g>
<g>
</g>
<g>
</g>
<g>
</g>
<g>
</g>
<g>
</g>
<g>
</g>
</svg>
