<?xml version="1.0" encoding="iso-8859-1"?>
<!-- Generator: Adobe Illustrator 19.0.0, SVG Export Plug-In . SVG Version: 6.00 Build 0)  -->
<svg version="1.1" id="Layer_1" xmlns="http://www.w3.org/2000/svg" xmlns:xlink="http://www.w3.org/1999/xlink" x="0px" y="0px"
	 viewBox="0 0 512 512" style="enable-background:new 0 0 512 512;" xml:space="preserve">
<path style="fill:#99DAEA;" d="M407.728,115.523c-26.237-54.592-82.054-92.278-146.673-92.278
	c-70.384,0-130.321,44.712-152.97,107.279C52.361,133.253,8.017,179.293,8.017,235.694c0,58.156,47.145,105.301,105.301,105.301
	h277.287c62.618,0,113.38-50.762,113.38-113.38C503.983,170.819,462.221,123.779,407.728,115.523z"/>
<g style="opacity:0.1;">
	<path d="M418.514,313.654H141.228c-58.156,0-105.301-47.145-105.301-105.301c0-22.406,7.002-43.175,18.932-60.244
		c-28.241,18.885-46.842,51.06-46.842,87.585c0,58.156,47.145,105.301,105.301,105.301h277.287
		c37.945,0,71.531-18.644,92.111-47.265C464.462,306.294,442.349,313.654,418.514,313.654z"/>
</g>
<path style="fill:#1E252B;" d="M159.639,371.616l-38.65,38.65c-3.131,3.131-3.131,8.207,0,11.337
	c1.565,1.566,3.617,2.348,5.668,2.348s4.103-0.782,5.668-2.348l38.65-38.65c3.131-3.131,3.131-8.207,0-11.337
	C167.846,368.485,162.77,368.485,159.639,371.616z M159.639,444.435l-38.65,38.65c-3.131,3.131-3.131,8.207,0,11.338
	c1.565,1.566,3.617,2.348,5.668,2.348s4.103-0.782,5.668-2.348l38.65-38.65c3.131-3.131,3.131-8.207,0-11.338
	C167.846,441.304,162.77,441.306,159.639,444.435z M275.548,371.616c-3.132-3.131-8.207-3.131-11.338,0l-38.649,38.65
	c-3.131,3.131-3.131,8.207,0,11.337c1.565,1.565,3.617,2.348,5.668,2.348s4.103-0.782,5.668-2.348l38.65-38.65
	C278.679,379.823,278.679,374.747,275.548,371.616z M482.347,148.114c-17.998-20.753-42.458-34.782-69.25-39.811
	c-13.764-26.933-34.43-49.739-59.98-66.138c-27.457-17.622-59.29-26.937-92.06-26.937c-69.879,0-132.976,43.056-158.649,107.67
	C44.564,128.403,0,176.963,0,235.694c0,62.484,50.834,113.318,113.318,113.318h277.287c66.937,0,121.395-54.458,121.395-121.396
	C512,198.396,501.468,170.161,482.347,148.114z M390.605,332.979H113.318c-53.642,0-97.284-43.641-97.284-97.284
	c0-51.946,40.606-94.625,92.444-97.161c3.228-0.158,6.046-2.239,7.147-5.279C137.708,72.25,196.152,31.262,261.057,31.262
	c29.693,0,58.532,8.436,83.398,24.396c24.225,15.548,43.607,37.45,56.048,63.336c1.148,2.389,3.403,4.056,6.025,4.453
	c24.65,3.735,47.275,16.225,63.706,35.17c16.593,19.133,25.733,43.637,25.733,68.997
	C495.967,285.713,448.701,332.979,390.605,332.979z M279.179,436.704l-38.65,38.65c-3.131,3.131-3.131,8.207,0,11.338
	c1.565,1.565,3.617,2.348,5.668,2.348c2.051,0,4.103-0.782,5.668-2.348l38.651-38.65c3.131-3.131,3.131-8.207,0-11.338
	C287.385,433.573,282.31,433.573,279.179,436.704z M379.673,371.616l-38.65,38.65c-3.131,3.131-3.131,8.207,0,11.337
	c1.566,1.566,3.617,2.348,5.669,2.348c2.051,0,4.103-0.782,5.669-2.348l38.65-38.65c3.131-3.131,3.131-8.207,0-11.337
	C387.881,368.485,382.806,368.485,379.673,371.616z"/>
<g>
</g>
<g>
</g>
<g>
</g>
<g>
</g>
<g>
</g>
<g>
</g>
<g>
</g>
<g>
</g>
<g>
</g>
<g>
</g>
<g>
</g>
<g>
</g>
<g>
</g>
<g>
</g>
<g>
</g>
</svg>
